<mxfile host="65bd71144e">
    <diagram id="4mFqMUNOFqqUY3_N8DWX" name="Page-1">
        <mxGraphModel dx="1870" dy="1088" grid="1" gridSize="10" guides="1" tooltips="1" connect="1" arrows="1" fold="1" page="1" pageScale="1" pageWidth="850" pageHeight="1100" math="0" shadow="0">
            <root>
                <mxCell id="0"/>
                <mxCell id="1" parent="0"/>
                <mxCell id="4" value="" style="edgeStyle=none;html=1;" parent="1" source="2" target="3" edge="1">
                    <mxGeometry relative="1" as="geometry"/>
                </mxCell>
                <mxCell id="47" value="depends" style="edgeLabel;html=1;align=center;verticalAlign=middle;resizable=0;points=[];" parent="4" vertex="1" connectable="0">
                    <mxGeometry y="-3" relative="1" as="geometry">
                        <mxPoint as="offset"/>
                    </mxGeometry>
                </mxCell>
                <mxCell id="10" value="" style="edgeStyle=none;html=1;" parent="1" source="2" target="9" edge="1">
                    <mxGeometry x="-0.0993" y="9" relative="1" as="geometry">
                        <mxPoint x="1175.5" y="1050" as="targetPoint"/>
                        <mxPoint as="offset"/>
                    </mxGeometry>
                </mxCell>
                <mxCell id="53" value="&lt;span style=&quot;color: rgb(0, 0, 0);&quot;&gt;use Spring Bean&lt;/span&gt;" style="edgeLabel;html=1;align=center;verticalAlign=middle;resizable=0;points=[];" parent="10" vertex="1" connectable="0">
                    <mxGeometry x="-0.04" relative="1" as="geometry">
                        <mxPoint as="offset"/>
                    </mxGeometry>
                </mxCell>
                <mxCell id="25" style="edgeStyle=none;html=1;entryX=0;entryY=0.5;entryDx=0;entryDy=0;exitX=1;exitY=0.5;exitDx=0;exitDy=0;" parent="1" source="3" target="23" edge="1">
                    <mxGeometry relative="1" as="geometry"/>
                </mxCell>
                <mxCell id="33" value="&lt;span style=&quot;color: rgb(0, 0, 0);&quot;&gt;partial mock bean&lt;/span&gt;" style="edgeLabel;html=1;align=center;verticalAlign=middle;resizable=0;points=[];" parent="25" vertex="1" connectable="0">
                    <mxGeometry x="0.2049" y="1" relative="1" as="geometry">
                        <mxPoint x="-24" y="1" as="offset"/>
                    </mxGeometry>
                </mxCell>
                <mxCell id="26" style="edgeStyle=none;html=1;entryX=0;entryY=0.5;entryDx=0;entryDy=0;exitX=1;exitY=0.5;exitDx=0;exitDy=0;" parent="1" source="5" target="24" edge="1">
                    <mxGeometry relative="1" as="geometry"/>
                </mxCell>
                <mxCell id="50" value="complete mock bean" style="edgeLabel;html=1;align=center;verticalAlign=middle;resizable=0;points=[];" parent="26" vertex="1" connectable="0">
                    <mxGeometry x="0.0762" y="-1" relative="1" as="geometry">
                        <mxPoint x="-10" y="-1" as="offset"/>
                    </mxGeometry>
                </mxCell>
                <mxCell id="2" value="Controller" style="rounded=1;whiteSpace=wrap;html=1;fillColor=#FFCCE6;" parent="1" vertex="1">
                    <mxGeometry x="975.5" y="1020" width="120" height="60" as="geometry"/>
                </mxCell>
                <mxCell id="6" value="" style="edgeStyle=none;html=1;" parent="1" source="3" target="5" edge="1">
                    <mxGeometry relative="1" as="geometry"/>
                </mxCell>
                <mxCell id="48" value="depends" style="edgeLabel;html=1;align=center;verticalAlign=middle;resizable=0;points=[];" parent="6" vertex="1" connectable="0">
                    <mxGeometry x="-0.175" relative="1" as="geometry">
                        <mxPoint as="offset"/>
                    </mxGeometry>
                </mxCell>
                <mxCell id="3" value="Service" style="rounded=1;whiteSpace=wrap;html=1;fillColor=#FFCCE6;" parent="1" vertex="1">
                    <mxGeometry x="975.5" y="1160" width="120" height="60" as="geometry"/>
                </mxCell>
                <mxCell id="8" value="" style="edgeStyle=none;html=1;" parent="1" source="5" target="7" edge="1">
                    <mxGeometry relative="1" as="geometry"/>
                </mxCell>
                <mxCell id="49" value="memory DB" style="edgeLabel;html=1;align=center;verticalAlign=middle;resizable=0;points=[];" parent="8" vertex="1" connectable="0">
                    <mxGeometry x="-0.125" y="1" relative="1" as="geometry">
                        <mxPoint as="offset"/>
                    </mxGeometry>
                </mxCell>
                <mxCell id="5" value="Persistence" style="rounded=1;whiteSpace=wrap;html=1;fillColor=#FFCCE6;" parent="1" vertex="1">
                    <mxGeometry x="975.5" y="1357" width="120" height="60" as="geometry"/>
                </mxCell>
                <mxCell id="7" value="H2" style="rounded=1;whiteSpace=wrap;html=1;fillColor=#FFCCE6;" parent="1" vertex="1">
                    <mxGeometry x="975.5" y="1487" width="120" height="60" as="geometry"/>
                </mxCell>
                <mxCell id="9" value="&lt;div style=&quot;text-align: justify;&quot;&gt;&lt;span style=&quot;background-color: transparent;&quot;&gt;@Autowire&lt;/span&gt;&lt;/div&gt;&lt;div style=&quot;text-align: justify;&quot;&gt;private xxController&lt;/div&gt;" style="whiteSpace=wrap;html=1;fillColor=#FFCCE6;rounded=1;" parent="1" vertex="1">
                    <mxGeometry x="1295.5" y="1020" width="120" height="55" as="geometry"/>
                </mxCell>
                <mxCell id="11" value="howt to create a integration on Springboot?" style="rounded=1;whiteSpace=wrap;html=1;fillColor=#9999FF;" parent="1" vertex="1">
                    <mxGeometry x="23" y="850" width="840" height="20" as="geometry"/>
                </mxCell>
                <mxCell id="38" style="edgeStyle=none;html=1;entryX=0.5;entryY=0;entryDx=0;entryDy=0;" parent="1" source="12" target="37" edge="1">
                    <mxGeometry relative="1" as="geometry"/>
                </mxCell>
                <mxCell id="12" value="xxControllerTest" style="rounded=1;whiteSpace=wrap;html=1;fillColor=#FFCCE6;" parent="1" vertex="1">
                    <mxGeometry x="130.5" y="890" width="120" height="60" as="geometry"/>
                </mxCell>
                <mxCell id="20" value="" style="edgeStyle=none;html=1;" parent="1" source="14" target="19" edge="1">
                    <mxGeometry relative="1" as="geometry"/>
                </mxCell>
                <mxCell id="14" value="@MockBean" style="rounded=1;whiteSpace=wrap;html=1;fillColor=#FFCCE6;" parent="1" vertex="1">
                    <mxGeometry x="365.5" y="1720" width="120" height="60" as="geometry"/>
                </mxCell>
                <mxCell id="17" value="" style="edgeStyle=none;html=1;entryX=0.5;entryY=0;entryDx=0;entryDy=0;" parent="1" source="15" target="18" edge="1">
                    <mxGeometry relative="1" as="geometry">
                        <mxPoint x="155.5" y="1840" as="targetPoint"/>
                    </mxGeometry>
                </mxCell>
                <mxCell id="15" value="@SpyBean" style="rounded=1;whiteSpace=wrap;html=1;fillColor=#FFCCE6;" parent="1" vertex="1">
                    <mxGeometry x="95.5" y="1720" width="120" height="60" as="geometry"/>
                </mxCell>
                <mxCell id="16" value="&lt;div style=&quot;text-align: justify;&quot;&gt;&lt;font color=&quot;#000000&quot;&gt;Let me explain the key differences between `@MockBean` and `@SpyBean` in Spring testing:&lt;/font&gt;&lt;/div&gt;&lt;div style=&quot;text-align: justify;&quot;&gt;&lt;font color=&quot;#000000&quot;&gt;&lt;br&gt;&lt;/font&gt;&lt;/div&gt;&lt;div style=&quot;text-align: justify;&quot;&gt;&lt;font color=&quot;#000000&quot;&gt;`@MockBean`:&lt;/font&gt;&lt;/div&gt;&lt;div style=&quot;text-align: justify;&quot;&gt;&lt;font color=&quot;#000000&quot;&gt;- Creates a complete mock implementation of the bean&lt;/font&gt;&lt;/div&gt;&lt;div style=&quot;text-align: justify;&quot;&gt;&lt;font color=&quot;#000000&quot;&gt;- By default, all methods return null, empty collections, or default primitive values&lt;/font&gt;&lt;/div&gt;&lt;div style=&quot;text-align: justify;&quot;&gt;&lt;font color=&quot;#000000&quot;&gt;- You need to explicitly define the behavior using `when()` or `doReturn()`&lt;/font&gt;&lt;/div&gt;&lt;div style=&quot;text-align: justify;&quot;&gt;&lt;font color=&quot;#000000&quot;&gt;- Useful when you want to completely control the behavior of the dependency&lt;/font&gt;&lt;/div&gt;&lt;div style=&quot;text-align: justify;&quot;&gt;&lt;font color=&quot;#000000&quot;&gt;- Example from your code:&lt;/font&gt;&lt;/div&gt;&lt;div style=&quot;text-align: justify;&quot;&gt;&lt;font color=&quot;#000000&quot;&gt;```java&lt;/font&gt;&lt;/div&gt;&lt;div style=&quot;text-align: justify;&quot;&gt;&lt;font color=&quot;#000000&quot;&gt;@MockBean&lt;/font&gt;&lt;/div&gt;&lt;div style=&quot;text-align: justify;&quot;&gt;&lt;font color=&quot;#000000&quot;&gt;private CustomUserInfoProvider mockUserInfoProvider;&lt;/font&gt;&lt;/div&gt;&lt;div style=&quot;text-align: justify;&quot;&gt;&lt;font color=&quot;#000000&quot;&gt;// All methods return null by default&lt;/font&gt;&lt;/div&gt;&lt;div style=&quot;text-align: justify;&quot;&gt;&lt;font color=&quot;#000000&quot;&gt;// You define specific behavior:&lt;/font&gt;&lt;/div&gt;&lt;div style=&quot;text-align: justify;&quot;&gt;&lt;font color=&quot;#000000&quot;&gt;when(mockUserInfoProvider.get()).thenReturn(UserInfo.create()...);&lt;/font&gt;&lt;/div&gt;&lt;div style=&quot;text-align: justify;&quot;&gt;&lt;font color=&quot;#000000&quot;&gt;```&lt;/font&gt;&lt;/div&gt;&lt;div style=&quot;text-align: justify;&quot;&gt;&lt;font color=&quot;#000000&quot;&gt;&lt;br&gt;&lt;/font&gt;&lt;/div&gt;&lt;div style=&quot;text-align: justify;&quot;&gt;&lt;font color=&quot;#000000&quot;&gt;`@SpyBean`:&lt;/font&gt;&lt;/div&gt;&lt;div style=&quot;text-align: justify;&quot;&gt;&lt;font color=&quot;#000000&quot;&gt;- Creates a partial mock that still calls the real methods&lt;/font&gt;&lt;/div&gt;&lt;div style=&quot;text-align: justify;&quot;&gt;&lt;font color=&quot;#000000&quot;&gt;- You can selectively override specific methods while keeping others unchanged&lt;/font&gt;&lt;/div&gt;&lt;div style=&quot;text-align: justify;&quot;&gt;&lt;font color=&quot;#000000&quot;&gt;- Original functionality is preserved unless explicitly stubbed&lt;/font&gt;&lt;/div&gt;&lt;div style=&quot;text-align: justify;&quot;&gt;&lt;font color=&quot;#000000&quot;&gt;- Useful when you want to keep most of the real behavior but override some methods&lt;/font&gt;&lt;/div&gt;&lt;div style=&quot;text-align: justify;&quot;&gt;&lt;font color=&quot;#000000&quot;&gt;- Example from your code:&lt;/font&gt;&lt;/div&gt;&lt;div style=&quot;text-align: justify;&quot;&gt;&lt;font color=&quot;#000000&quot;&gt;```java&lt;/font&gt;&lt;/div&gt;&lt;div style=&quot;text-align: justify;&quot;&gt;&lt;font color=&quot;#000000&quot;&gt;@SpyBean&lt;/font&gt;&lt;/div&gt;&lt;div style=&quot;text-align: justify;&quot;&gt;&lt;font color=&quot;#000000&quot;&gt;private TPDService tpdService;&lt;/font&gt;&lt;/div&gt;&lt;div style=&quot;text-align: justify;&quot;&gt;&lt;font color=&quot;#000000&quot;&gt;// Most methods work normally&lt;/font&gt;&lt;/div&gt;&lt;div style=&quot;text-align: justify;&quot;&gt;&lt;font color=&quot;#000000&quot;&gt;// You can override specific methods:&lt;/font&gt;&lt;/div&gt;&lt;div style=&quot;text-align: justify;&quot;&gt;&lt;font color=&quot;#000000&quot;&gt;doReturn(result).when(tpdService).run(any(Select.class));&lt;/font&gt;&lt;/div&gt;&lt;div style=&quot;text-align: justify;&quot;&gt;&lt;font color=&quot;#000000&quot;&gt;```&lt;/font&gt;&lt;/div&gt;&lt;div style=&quot;text-align: justify;&quot;&gt;&lt;font color=&quot;#000000&quot;&gt;&lt;br&gt;&lt;/font&gt;&lt;/div&gt;&lt;div style=&quot;text-align: justify;&quot;&gt;&lt;font color=&quot;#000000&quot;&gt;When to use which:&lt;/font&gt;&lt;/div&gt;&lt;div style=&quot;text-align: justify;&quot;&gt;&lt;font color=&quot;#000000&quot;&gt;- Use `@MockBean` when you want complete control and don&#39;t need any real implementation&lt;/font&gt;&lt;/div&gt;&lt;div style=&quot;text-align: justify;&quot;&gt;&lt;font color=&quot;#000000&quot;&gt;- Use `@SpyBean` when you want to keep the real implementation but override only specific methods&lt;/font&gt;&lt;/div&gt;&lt;div style=&quot;text-align: justify;&quot;&gt;&lt;font color=&quot;#000000&quot;&gt;&lt;br&gt;&lt;/font&gt;&lt;/div&gt;&lt;div style=&quot;text-align: justify;&quot;&gt;&lt;font color=&quot;#000000&quot;&gt;In your test, `TPDService` is spied because you might want to keep some of its real functionality while controlling the `run()` method, while `CustomUserInfoProvider` is completely mocked since you only need to control what user info is returned.&lt;/font&gt;&lt;/div&gt;" style="rounded=0;whiteSpace=wrap;html=1;fillColor=#FFCCE6;" parent="1" vertex="1">
                    <mxGeometry x="65.5" y="1970" width="1260" height="550" as="geometry"/>
                </mxCell>
                <mxCell id="21" style="edgeStyle=none;html=1;" parent="1" source="18" target="16" edge="1">
                    <mxGeometry relative="1" as="geometry"/>
                </mxCell>
                <mxCell id="18" value="&lt;div&gt;for all methods:&lt;/div&gt;Partial Mock" style="rounded=1;whiteSpace=wrap;html=1;fillColor=#FFCCE6;" parent="1" vertex="1">
                    <mxGeometry x="95.5" y="1850" width="120" height="60" as="geometry"/>
                </mxCell>
                <mxCell id="22" style="edgeStyle=none;html=1;entryX=0.25;entryY=0;entryDx=0;entryDy=0;" parent="1" source="19" target="16" edge="1">
                    <mxGeometry relative="1" as="geometry"/>
                </mxCell>
                <mxCell id="19" value="&lt;div&gt;for all methods:&lt;/div&gt;Completely Mock" style="rounded=1;whiteSpace=wrap;html=1;fillColor=#FFCCE6;" parent="1" vertex="1">
                    <mxGeometry x="365.5" y="1850" width="120" height="60" as="geometry"/>
                </mxCell>
                <mxCell id="30" value="" style="edgeStyle=none;html=1;" parent="1" source="23" target="29" edge="1">
                    <mxGeometry relative="1" as="geometry"/>
                </mxCell>
                <mxCell id="23" value="&lt;div style=&quot;text-align: justify;&quot;&gt;&lt;span style=&quot;background-color: transparent;&quot;&gt;@SpyBean&lt;/span&gt;&lt;/div&gt;&lt;div style=&quot;text-align: justify;&quot;&gt;Private xxService&lt;/div&gt;" style="rounded=1;whiteSpace=wrap;html=1;fillColor=#CCFFE6;" parent="1" vertex="1">
                    <mxGeometry x="1295.5" y="1160" width="120" height="60" as="geometry"/>
                </mxCell>
                <mxCell id="28" value="" style="edgeStyle=none;html=1;entryX=0;entryY=0.5;entryDx=0;entryDy=0;" parent="1" source="24" target="27" edge="1">
                    <mxGeometry relative="1" as="geometry">
                        <mxPoint x="1388.5" y="1390" as="targetPoint"/>
                    </mxGeometry>
                </mxCell>
                <mxCell id="52" style="edgeStyle=none;html=1;entryX=0.5;entryY=1;entryDx=0;entryDy=0;" parent="1" source="24" target="31" edge="1">
                    <mxGeometry relative="1" as="geometry"/>
                </mxCell>
                <mxCell id="24" value="&lt;div style=&quot;text-align: justify;&quot;&gt;&lt;span style=&quot;background-color: transparent;&quot;&gt;@MockBean&lt;/span&gt;&lt;/div&gt;&lt;div style=&quot;text-align: justify;&quot;&gt;private xxPersitence&lt;/div&gt;" style="rounded=1;whiteSpace=wrap;html=1;fillColor=#FFFFCC;" parent="1" vertex="1">
                    <mxGeometry x="1295.5" y="1360" width="120" height="60" as="geometry"/>
                </mxCell>
                <mxCell id="27" value="&lt;div style=&quot;text-align: justify;&quot;&gt;doReturn().when().run()&lt;/div&gt;" style="rounded=1;whiteSpace=wrap;html=1;fillColor=#FFFFCC;" parent="1" vertex="1">
                    <mxGeometry x="1500.5" y="1360" width="200" height="60" as="geometry"/>
                </mxCell>
                <mxCell id="29" value="when(xx.yy()).thenReturn()" style="rounded=1;whiteSpace=wrap;html=1;fillColor=#CCFFE6;" parent="1" vertex="1">
                    <mxGeometry x="1495.5" y="1160" width="190" height="60" as="geometry"/>
                </mxCell>
                <mxCell id="31" value="mock(xxx.class)" style="rounded=1;whiteSpace=wrap;html=1;fillColor=#CCCCCC;" parent="1" vertex="1">
                    <mxGeometry x="1295.5" y="1280" width="120" height="30" as="geometry"/>
                </mxCell>
                <mxCell id="39" style="edgeStyle=none;html=1;entryX=0;entryY=0.5;entryDx=0;entryDy=0;" parent="1" source="37" target="2" edge="1">
                    <mxGeometry relative="1" as="geometry"/>
                </mxCell>
                <mxCell id="86" value="" style="edgeStyle=none;html=1;" parent="1" source="37" target="85" edge="1">
                    <mxGeometry relative="1" as="geometry"/>
                </mxCell>
                <mxCell id="37" value="tested Object" style="rounded=1;whiteSpace=wrap;html=1;" parent="1" vertex="1">
                    <mxGeometry x="130.5" y="1017" width="120" height="60" as="geometry"/>
                </mxCell>
                <mxCell id="40" value="mvn test -Dtest=className#methodName -X&lt;div&gt;-X: debug mode&lt;/div&gt;" style="rounded=1;whiteSpace=wrap;html=1;" parent="1" vertex="1">
                    <mxGeometry x="33" y="1400" width="315" height="60" as="geometry"/>
                </mxCell>
                <mxCell id="46" style="edgeStyle=none;html=1;entryX=0.5;entryY=0;entryDx=0;entryDy=0;" parent="1" source="44" target="40" edge="1">
                    <mxGeometry relative="1" as="geometry"/>
                </mxCell>
                <mxCell id="60" style="edgeStyle=none;html=1;entryX=0;entryY=0.5;entryDx=0;entryDy=0;" parent="1" source="44" target="62" edge="1">
                    <mxGeometry relative="1" as="geometry">
                        <mxPoint x="568" y="1287" as="targetPoint"/>
                    </mxGeometry>
                </mxCell>
                <mxCell id="80" value="normal result" style="edgeLabel;html=1;align=center;verticalAlign=middle;resizable=0;points=[];" parent="60" vertex="1" connectable="0">
                    <mxGeometry x="0.594" relative="1" as="geometry">
                        <mxPoint x="-45" as="offset"/>
                    </mxGeometry>
                </mxCell>
                <mxCell id="44" value="Assertion" style="rounded=1;whiteSpace=wrap;html=1;" parent="1" vertex="1">
                    <mxGeometry x="130.5" y="1257" width="120" height="60" as="geometry"/>
                </mxCell>
                <mxCell id="51" style="edgeStyle=none;html=1;entryX=0.5;entryY=0;entryDx=0;entryDy=0;" parent="1" source="23" target="31" edge="1">
                    <mxGeometry relative="1" as="geometry"/>
                </mxCell>
                <mxCell id="55" style="edgeStyle=none;html=1;entryX=1;entryY=0;entryDx=0;entryDy=0;" parent="1" target="9" edge="1">
                    <mxGeometry relative="1" as="geometry">
                        <mxPoint x="1586.7195121951218" y="840" as="sourcePoint"/>
                    </mxGeometry>
                </mxCell>
                <mxCell id="56" style="edgeStyle=none;html=1;entryX=1;entryY=0;entryDx=0;entryDy=0;" parent="1" target="23" edge="1">
                    <mxGeometry relative="1" as="geometry">
                        <mxPoint x="1596.3695652173915" y="840" as="sourcePoint"/>
                    </mxGeometry>
                </mxCell>
                <mxCell id="57" style="edgeStyle=none;html=1;entryX=1;entryY=0;entryDx=0;entryDy=0;" parent="1" target="24" edge="1">
                    <mxGeometry relative="1" as="geometry">
                        <mxPoint x="1601.5550458715597" y="840" as="sourcePoint"/>
                    </mxGeometry>
                </mxCell>
                <mxCell id="54" value="Spring IOC" style="rounded=1;whiteSpace=wrap;html=1;" parent="1" vertex="1">
                    <mxGeometry x="1570" y="790" width="70" height="50" as="geometry"/>
                </mxCell>
                <mxCell id="59" style="edgeStyle=none;html=1;entryX=1;entryY=0;entryDx=0;entryDy=0;" parent="1" source="58" target="31" edge="1">
                    <mxGeometry relative="1" as="geometry"/>
                </mxCell>
                <mxCell id="67" style="edgeStyle=none;html=1;entryX=1;entryY=0;entryDx=0;entryDy=0;" parent="1" source="58" target="29" edge="1">
                    <mxGeometry relative="1" as="geometry"/>
                </mxCell>
                <mxCell id="83" style="edgeStyle=none;html=1;entryX=1;entryY=0;entryDx=0;entryDy=0;" parent="1" source="58" target="78" edge="1">
                    <mxGeometry relative="1" as="geometry"/>
                </mxCell>
                <mxCell id="58" value="Mockito" style="rounded=1;whiteSpace=wrap;html=1;" parent="1" vertex="1">
                    <mxGeometry x="1822.5" y="860" width="50" height="35" as="geometry"/>
                </mxCell>
                <mxCell id="64" value="" style="edgeStyle=none;html=1;" parent="1" source="62" target="63" edge="1">
                    <mxGeometry relative="1" as="geometry"/>
                </mxCell>
                <mxCell id="81" value="edge case&amp;nbsp;&lt;div&gt;exception&lt;/div&gt;" style="edgeLabel;html=1;align=center;verticalAlign=middle;resizable=0;points=[];" parent="64" vertex="1" connectable="0">
                    <mxGeometry x="-0.1343" y="3" relative="1" as="geometry">
                        <mxPoint as="offset"/>
                    </mxGeometry>
                </mxCell>
                <mxCell id="71" value="" style="edgeStyle=none;html=1;entryX=0;entryY=0.5;entryDx=0;entryDy=0;" parent="1" source="62" target="74" edge="1">
                    <mxGeometry relative="1" as="geometry">
                        <mxPoint x="618" y="1287" as="targetPoint"/>
                    </mxGeometry>
                </mxCell>
                <mxCell id="62" value=".equal" style="rounded=1;whiteSpace=wrap;html=1;fillColor=#FFFFCC;" parent="1" vertex="1">
                    <mxGeometry x="418" y="1257" width="120" height="60" as="geometry"/>
                </mxCell>
                <mxCell id="66" value="" style="edgeStyle=none;html=1;exitX=0.5;exitY=1;exitDx=0;exitDy=0;" parent="1" source="63" target="65" edge="1">
                    <mxGeometry relative="1" as="geometry">
                        <mxPoint x="478" y="1467" as="sourcePoint"/>
                    </mxGeometry>
                </mxCell>
                <mxCell id="82" value="cache&amp;nbsp;" style="edgeLabel;html=1;align=center;verticalAlign=middle;resizable=0;points=[];" parent="66" vertex="1" connectable="0">
                    <mxGeometry x="-0.1321" y="2" relative="1" as="geometry">
                        <mxPoint as="offset"/>
                    </mxGeometry>
                </mxCell>
                <mxCell id="73" value="" style="edgeStyle=none;html=1;entryX=0;entryY=0.5;entryDx=0;entryDy=0;" parent="1" source="63" target="75" edge="1">
                    <mxGeometry relative="1" as="geometry">
                        <mxPoint x="618" y="1414" as="targetPoint"/>
                    </mxGeometry>
                </mxCell>
                <mxCell id="63" value="expect exception" style="rounded=1;whiteSpace=wrap;html=1;fillColor=#FFFFCC;" parent="1" vertex="1">
                    <mxGeometry x="418" y="1384" width="120" height="60" as="geometry"/>
                </mxCell>
                <mxCell id="79" style="edgeStyle=none;html=1;" parent="1" source="65" target="78" edge="1">
                    <mxGeometry relative="1" as="geometry"/>
                </mxCell>
                <mxCell id="65" value="times" style="rounded=1;whiteSpace=wrap;html=1;fillColor=#FFFFCC;" parent="1" vertex="1">
                    <mxGeometry x="418" y="1497" width="120" height="60" as="geometry"/>
                </mxCell>
                <mxCell id="68" style="edgeStyle=none;html=1;entryX=0.985;entryY=0.133;entryDx=0;entryDy=0;entryPerimeter=0;" parent="1" source="58" target="27" edge="1">
                    <mxGeometry relative="1" as="geometry"/>
                </mxCell>
                <mxCell id="76" style="edgeStyle=none;html=1;entryX=1;entryY=0;entryDx=0;entryDy=0;" parent="1" source="69" target="74" edge="1">
                    <mxGeometry relative="1" as="geometry"/>
                </mxCell>
                <mxCell id="77" style="edgeStyle=none;html=1;entryX=1;entryY=0;entryDx=0;entryDy=0;" parent="1" source="69" target="75" edge="1">
                    <mxGeometry relative="1" as="geometry"/>
                </mxCell>
                <mxCell id="69" value="Junit" style="rounded=1;whiteSpace=wrap;html=1;" parent="1" vertex="1">
                    <mxGeometry x="868" y="1207" width="60" height="40" as="geometry"/>
                </mxCell>
                <mxCell id="74" value="&lt;span style=&quot;color: rgb(0, 0, 0);&quot;&gt;Assertion.notNull&lt;/span&gt;" style="rounded=1;whiteSpace=wrap;html=1;" parent="1" vertex="1">
                    <mxGeometry x="628" y="1257" width="120" height="60" as="geometry"/>
                </mxCell>
                <mxCell id="75" value="&lt;span style=&quot;color: rgb(0, 0, 0);&quot;&gt;Assertion.assertThrows&lt;/span&gt;" style="rounded=1;whiteSpace=wrap;html=1;" parent="1" vertex="1">
                    <mxGeometry x="608" y="1384" width="160" height="60" as="geometry"/>
                </mxCell>
                <mxCell id="78" value="Mockito.verify(db, times(2)).run(xx)" style="rounded=1;whiteSpace=wrap;html=1;" parent="1" vertex="1">
                    <mxGeometry x="588" y="1497" width="260" height="60" as="geometry"/>
                </mxCell>
                <mxCell id="87" style="edgeStyle=none;html=1;entryX=0.5;entryY=0;entryDx=0;entryDy=0;" parent="1" source="85" target="44" edge="1">
                    <mxGeometry relative="1" as="geometry"/>
                </mxCell>
                <mxCell id="85" value="prepare data" style="rounded=1;whiteSpace=wrap;html=1;" parent="1" vertex="1">
                    <mxGeometry x="130.5" y="1132" width="120" height="60" as="geometry"/>
                </mxCell>
                <mxCell id="100" value="" style="edgeStyle=none;html=1;entryX=0;entryY=0.5;entryDx=0;entryDy=0;" parent="1" source="95" target="99" edge="1">
                    <mxGeometry relative="1" as="geometry">
                        <mxPoint x="550" y="130" as="targetPoint"/>
                    </mxGeometry>
                </mxCell>
                <mxCell id="106" style="edgeStyle=none;html=1;entryX=0.5;entryY=0;entryDx=0;entryDy=0;exitX=0.5;exitY=1;exitDx=0;exitDy=0;" parent="1" target="96" edge="1" source="130">
                    <mxGeometry relative="1" as="geometry">
                        <mxPoint x="340" y="210" as="sourcePoint"/>
                    </mxGeometry>
                </mxCell>
                <mxCell id="107" value="mock some behavior(method)" style="edgeLabel;html=1;align=center;verticalAlign=middle;resizable=0;points=[];" parent="106" vertex="1" connectable="0">
                    <mxGeometry x="0.0444" relative="1" as="geometry">
                        <mxPoint as="offset"/>
                    </mxGeometry>
                </mxCell>
                <mxCell id="131" value="" style="edgeStyle=none;html=1;" parent="1" source="95" target="130" edge="1">
                    <mxGeometry relative="1" as="geometry"/>
                </mxCell>
                <mxCell id="132" value="or" style="edgeLabel;html=1;align=center;verticalAlign=middle;resizable=0;points=[];" parent="131" vertex="1" connectable="0">
                    <mxGeometry x="-0.325" y="2" relative="1" as="geometry">
                        <mxPoint as="offset"/>
                    </mxGeometry>
                </mxCell>
                <mxCell id="95" value="Junit" style="rounded=1;whiteSpace=wrap;html=1;fillColor=#FFCCE6;" parent="1" vertex="1">
                    <mxGeometry x="280" y="50" width="120" height="60" as="geometry"/>
                </mxCell>
                <mxCell id="108" style="edgeStyle=none;html=1;entryX=0.5;entryY=0;entryDx=0;entryDy=0;" parent="1" target="97" edge="1">
                    <mxGeometry relative="1" as="geometry">
                        <mxPoint x="340" y="370" as="sourcePoint"/>
                    </mxGeometry>
                </mxCell>
                <mxCell id="110" value="mange spring beans?" style="edgeLabel;html=1;align=center;verticalAlign=middle;resizable=0;points=[];" parent="108" vertex="1" connectable="0">
                    <mxGeometry x="-0.1" y="1" relative="1" as="geometry">
                        <mxPoint x="-1" y="31" as="offset"/>
                    </mxGeometry>
                </mxCell>
                <mxCell id="112" style="edgeStyle=none;html=1;" parent="1" source="96" target="111" edge="1">
                    <mxGeometry relative="1" as="geometry"/>
                </mxCell>
                <mxCell id="137" value="" style="edgeStyle=none;html=1;" edge="1" parent="1" source="96" target="136">
                    <mxGeometry relative="1" as="geometry"/>
                </mxCell>
                <mxCell id="138" value="or" style="edgeLabel;html=1;align=center;verticalAlign=middle;resizable=0;points=[];" vertex="1" connectable="0" parent="137">
                    <mxGeometry y="1" relative="1" as="geometry">
                        <mxPoint as="offset"/>
                    </mxGeometry>
                </mxCell>
                <mxCell id="96" value="Mockito | PowerMock" style="rounded=1;whiteSpace=wrap;html=1;fillColor=#FFCCE6;" parent="1" vertex="1">
                    <mxGeometry x="280" y="270" width="120" height="60" as="geometry"/>
                </mxCell>
                <mxCell id="114" style="edgeStyle=none;html=1;entryX=0;entryY=0.5;entryDx=0;entryDy=0;" parent="1" source="97" target="113" edge="1">
                    <mxGeometry relative="1" as="geometry"/>
                </mxCell>
                <mxCell id="115" value="env" style="edgeLabel;html=1;align=center;verticalAlign=middle;resizable=0;points=[];" parent="114" vertex="1" connectable="0">
                    <mxGeometry relative="1" as="geometry">
                        <mxPoint as="offset"/>
                    </mxGeometry>
                </mxCell>
                <mxCell id="128" value="" style="edgeStyle=none;html=1;" parent="1" source="97" target="127" edge="1">
                    <mxGeometry relative="1" as="geometry"/>
                </mxCell>
                <mxCell id="129" value="with maven?" style="edgeLabel;html=1;align=center;verticalAlign=middle;resizable=0;points=[];" parent="128" vertex="1" connectable="0">
                    <mxGeometry x="-0.0875" y="3" relative="1" as="geometry">
                        <mxPoint as="offset"/>
                    </mxGeometry>
                </mxCell>
                <mxCell id="97" value="SpringBoot" style="rounded=1;whiteSpace=wrap;html=1;fillColor=#FFCCE6;" parent="1" vertex="1">
                    <mxGeometry x="280" y="478.18" width="120" height="60" as="geometry"/>
                </mxCell>
                <mxCell id="122" value="" style="edgeStyle=none;html=1;" parent="1" source="99" target="121" edge="1">
                    <mxGeometry relative="1" as="geometry"/>
                </mxCell>
                <mxCell id="123" value="asssert" style="edgeLabel;html=1;align=center;verticalAlign=middle;resizable=0;points=[];" parent="122" vertex="1" connectable="0">
                    <mxGeometry x="-0.075" y="2" relative="1" as="geometry">
                        <mxPoint y="1" as="offset"/>
                    </mxGeometry>
                </mxCell>
                <mxCell id="99" value="&lt;div style=&quot;text-align: justify;&quot;&gt;&lt;span style=&quot;background-color: transparent;&quot;&gt;@Test&lt;/span&gt;&lt;/div&gt;&lt;div style=&quot;text-align: justify;&quot;&gt;@BeforeEach&lt;/div&gt;&lt;div style=&quot;text-align: justify;&quot;&gt;@After&lt;/div&gt;&lt;div style=&quot;text-align: justify;&quot;&gt;parameterized&lt;/div&gt;" style="rounded=1;whiteSpace=wrap;html=1;fillColor=#FFFFFF;" parent="1" vertex="1">
                    <mxGeometry x="520" y="50" width="120" height="60" as="geometry"/>
                </mxCell>
                <mxCell id="104" style="edgeStyle=none;html=1;" parent="1" source="103" target="95" edge="1">
                    <mxGeometry relative="1" as="geometry"/>
                </mxCell>
                <mxCell id="105" value="to run a test" style="edgeLabel;html=1;align=center;verticalAlign=middle;resizable=0;points=[];" parent="104" vertex="1" connectable="0">
                    <mxGeometry x="0.0667" y="-1" relative="1" as="geometry">
                        <mxPoint as="offset"/>
                    </mxGeometry>
                </mxCell>
                <mxCell id="103" value="Begin" style="ellipse;whiteSpace=wrap;html=1;" parent="1" vertex="1">
                    <mxGeometry x="40" y="40" width="120" height="80" as="geometry"/>
                </mxCell>
                <mxCell id="125" value="" style="edgeStyle=none;html=1;" parent="1" source="111" target="124" edge="1">
                    <mxGeometry relative="1" as="geometry"/>
                </mxCell>
                <mxCell id="126" value="static mock?" style="edgeLabel;html=1;align=center;verticalAlign=middle;resizable=0;points=[];" parent="125" vertex="1" connectable="0">
                    <mxGeometry x="-0.25" y="-1" relative="1" as="geometry">
                        <mxPoint x="15" y="-1" as="offset"/>
                    </mxGeometry>
                </mxCell>
                <mxCell id="111" value="&lt;div&gt;@Mock&lt;/div&gt;&lt;div&gt;@Spy&lt;/div&gt;Mockito.mock(xx.class)&lt;div&gt;when(xx.methodA()).thenReturn()&lt;/div&gt;" style="rounded=1;whiteSpace=wrap;html=1;" parent="1" vertex="1">
                    <mxGeometry x="520" y="260" width="210" height="70" as="geometry"/>
                </mxCell>
                <mxCell id="117" value="" style="edgeStyle=none;html=1;" parent="1" source="113" target="116" edge="1">
                    <mxGeometry relative="1" as="geometry"/>
                </mxCell>
                <mxCell id="119" value="mock bean" style="edgeLabel;html=1;align=center;verticalAlign=middle;resizable=0;points=[];" parent="117" vertex="1" connectable="0">
                    <mxGeometry x="0.175" y="1" relative="1" as="geometry">
                        <mxPoint as="offset"/>
                    </mxGeometry>
                </mxCell>
                <mxCell id="113" value="&lt;div style=&quot;text-align: justify;&quot;&gt;&lt;span style=&quot;background-color: transparent;&quot;&gt;@SpringBootTest(classes={Application.class} // to load context&lt;/span&gt;&lt;/div&gt;&lt;div style=&quot;text-align: justify;&quot;&gt;@ActiveProfiles(&quot;test&quot;) //application-test.yaml&lt;/div&gt;" style="rounded=1;whiteSpace=wrap;html=1;" parent="1" vertex="1">
                    <mxGeometry x="520" y="472.27" width="350" height="71.82" as="geometry"/>
                </mxCell>
                <mxCell id="116" value="&lt;div style=&quot;text-align: justify;&quot;&gt;@SpyBean&lt;/div&gt;&lt;div style=&quot;text-align: justify;&quot;&gt;@MockBean&lt;/div&gt;" style="rounded=1;whiteSpace=wrap;html=1;" parent="1" vertex="1">
                    <mxGeometry x="972.5" y="472.27" width="130" height="60" as="geometry"/>
                </mxCell>
                <mxCell id="121" value="Assertion" style="rounded=1;whiteSpace=wrap;html=1;fillColor=#FFFFFF;" parent="1" vertex="1">
                    <mxGeometry x="775" y="50" width="120" height="60" as="geometry"/>
                </mxCell>
                <mxCell id="124" value="Mocktio incline" style="rounded=1;whiteSpace=wrap;html=1;" parent="1" vertex="1">
                    <mxGeometry x="930" y="265" width="150" height="60" as="geometry"/>
                </mxCell>
                <mxCell id="145" style="edgeStyle=none;html=1;entryX=0;entryY=0.5;entryDx=0;entryDy=0;" edge="1" parent="1" source="127" target="144">
                    <mxGeometry relative="1" as="geometry"/>
                </mxCell>
                <mxCell id="147" value="" style="edgeStyle=none;html=1;" edge="1" parent="1" source="127" target="146">
                    <mxGeometry relative="1" as="geometry"/>
                </mxCell>
                <mxCell id="148" value="UI test?" style="edgeLabel;html=1;align=center;verticalAlign=middle;resizable=0;points=[];" vertex="1" connectable="0" parent="147">
                    <mxGeometry x="-0.225" y="2" relative="1" as="geometry">
                        <mxPoint x="-2" y="7" as="offset"/>
                    </mxGeometry>
                </mxCell>
                <mxCell id="127" value="maven surfire" style="rounded=1;whiteSpace=wrap;html=1;fillColor=#FFCCE6;" parent="1" vertex="1">
                    <mxGeometry x="280" y="580" width="120" height="60" as="geometry"/>
                </mxCell>
                <mxCell id="133" style="edgeStyle=none;html=1;entryX=0;entryY=1;entryDx=0;entryDy=0;" parent="1" source="130" edge="1" target="99">
                    <mxGeometry relative="1" as="geometry">
                        <mxPoint x="550" y="160" as="targetPoint"/>
                    </mxGeometry>
                </mxCell>
                <mxCell id="141" style="edgeStyle=none;html=1;entryX=0;entryY=0.5;entryDx=0;entryDy=0;" edge="1" parent="1" source="130" target="140">
                    <mxGeometry relative="1" as="geometry"/>
                </mxCell>
                <mxCell id="130" value="TestNG" style="rounded=1;whiteSpace=wrap;html=1;fillColor=#FFCCE6;" parent="1" vertex="1">
                    <mxGeometry x="280" y="150" width="120" height="60" as="geometry"/>
                </mxCell>
                <mxCell id="134" value="details" style="rounded=1;whiteSpace=wrap;html=1;fillColor=#9999FF;" vertex="1" parent="1">
                    <mxGeometry x="33" y="1670" width="840" height="20" as="geometry"/>
                </mxCell>
                <mxCell id="139" style="edgeStyle=none;html=1;entryX=0;entryY=1;entryDx=0;entryDy=0;" edge="1" parent="1" source="136" target="111">
                    <mxGeometry relative="1" as="geometry"/>
                </mxCell>
                <mxCell id="143" style="edgeStyle=none;html=1;entryX=0;entryY=0.5;entryDx=0;entryDy=0;" edge="1" parent="1" source="136" target="142">
                    <mxGeometry relative="1" as="geometry"/>
                </mxCell>
                <mxCell id="136" value="PowerMock" style="rounded=1;whiteSpace=wrap;html=1;fillColor=#FFCCE6;" vertex="1" parent="1">
                    <mxGeometry x="280" y="370" width="120" height="60" as="geometry"/>
                </mxCell>
                <mxCell id="140" value="&lt;div style=&quot;text-align: justify;&quot;&gt;group&lt;/div&gt;&lt;div style=&quot;text-align: justify;&quot;&gt;dependencies&lt;/div&gt;&lt;div style=&quot;text-align: justify;&quot;&gt;parameters&lt;/div&gt;&lt;div style=&quot;text-align: justify;&quot;&gt;parallel testing&lt;/div&gt;&lt;div style=&quot;text-align: justify;&quot;&gt;xml file to config&lt;/div&gt;" style="rounded=1;whiteSpace=wrap;html=1;fillColor=#FFFFFF;" vertex="1" parent="1">
                    <mxGeometry x="520" y="135" width="130" height="90" as="geometry"/>
                </mxCell>
                <mxCell id="142" value="custom classloader&lt;div&gt;@PrepareForTest&lt;/div&gt;&lt;div&gt;static mock&lt;/div&gt;&lt;div&gt;final classes&lt;/div&gt;&lt;div&gt;constructors&lt;/div&gt;" style="rounded=1;whiteSpace=wrap;html=1;" vertex="1" parent="1">
                    <mxGeometry x="520" y="360" width="160" height="80" as="geometry"/>
                </mxCell>
                <mxCell id="144" value="&lt;div style=&quot;text-align: justify;&quot;&gt;*Test.java&lt;/div&gt;&lt;div style=&quot;text-align: justify;&quot;&gt;including, excluding tests&lt;/div&gt;&lt;div style=&quot;text-align: justify;&quot;&gt;target/surefire-reports&lt;/div&gt;&lt;div style=&quot;text-align: justify;&quot;&gt;-DskipTests=true&lt;/div&gt;" style="rounded=1;whiteSpace=wrap;html=1;" vertex="1" parent="1">
                    <mxGeometry x="520" y="580" width="190" height="60" as="geometry"/>
                </mxCell>
                <mxCell id="150" style="edgeStyle=none;html=1;" edge="1" parent="1" source="146" target="149">
                    <mxGeometry relative="1" as="geometry"/>
                </mxCell>
                <mxCell id="146" value="selenium" style="rounded=1;whiteSpace=wrap;html=1;fillColor=#FFCCE6;" vertex="1" parent="1">
                    <mxGeometry x="280" y="700" width="120" height="60" as="geometry"/>
                </mxCell>
                <mxCell id="149" value="" style="rounded=1;whiteSpace=wrap;html=1;" vertex="1" parent="1">
                    <mxGeometry x="520" y="700" width="120" height="60" as="geometry"/>
                </mxCell>
            </root>
        </mxGraphModel>
    </diagram>
</mxfile>